<svg xmlns="http://www.w3.org/2000/svg" viewBox="0 0 960 340" width="960" height="340">
<rect width="960" height="340" fill="#0a0e1a"/>
<defs>
  <radialGradient id="bg_glow" cx="50%" cy="50%" r="60%">
    <stop offset="0%" stop-color="#1e293b" stop-opacity="0.6"/>
    <stop offset="100%" stop-color="#0a0e1a" stop-opacity="0"/>
  </radialGradient>
</defs>
<rect width="960" height="340" fill="url(#bg_glow)"/>
<text x="480" y="28" text-anchor="middle" font-family="ui-monospace,'Cascadia Code',monospace" font-size="13" font-weight="800" fill="#f1f5f9" letter-spacing="3" opacity="0.9">PRODUCTION LLM STACK</text>
<text x="480" y="44" text-anchor="middle" font-family="ui-monospace,monospace" font-size="8.5" fill="#475569" letter-spacing="1.5">ARCHITECTURE OVERVIEW</text>
<rect x="55" y="63" width="155" height="210" rx="14" fill="#22c55e" fill-opacity="0.08"/>
<defs><linearGradient id="cg0" x1="0" y1="0" x2="0" y2="1"><stop offset="0%" stop-color="#062310" stop-opacity="1"/><stop offset="100%" stop-color="#020f07" stop-opacity="1"/></linearGradient></defs>
<rect x="52" y="60" width="155" height="210" rx="14" fill="url(#cg0)" stroke="#22c55e" stroke-width="1" stroke-opacity="0.35"/>
<rect x="52" y="60" width="155" height="38" rx="14" fill="#22c55e" fill-opacity="0.18"/>
<rect x="52" y="84" width="155" height="14" fill="#22c55e" fill-opacity="0.18"/>
<rect x="64" y="60" width="131" height="3" rx="1.5" fill="#22c55e" fill-opacity="0.9"/>
<rect x="62" y="70" width="38" height="16" rx="8" fill="#22c55e" fill-opacity="0.25" stroke="#22c55e" stroke-width="0.8" stroke-opacity="0.6"/>
<text x="67" y="82" font-family="ui-monospace,monospace" font-size="7.5" font-weight="700" fill="#22c55e" opacity="0.95">DATA</text>
<text x="129" y="110" text-anchor="middle" font-family="ui-monospace,monospace" font-size="10.5" font-weight="800" fill="#f1f5f9" opacity="0.95">Data</text>
<text x="129" y="123" text-anchor="middle" font-family="ui-monospace,monospace" font-size="10.5" font-weight="800" fill="#f1f5f9" opacity="0.95">Ingestion</text>
<line x1="64" y1="136" x2="195" y2="136" stroke="#22c55e" stroke-width="0.6" stroke-opacity="0.3"/>
<rect x="64" y="150" width="131" height="22" rx="6" fill="#22c55e" fill-opacity="0.10" stroke="#22c55e" stroke-width="0.5" stroke-opacity="0.25"/>
<text x="129" y="164" text-anchor="middle" font-family="ui-monospace,monospace" font-size="9" font-weight="600" fill="#e2e8f0" opacity="0.85">Kafka</text>
<rect x="64" y="177" width="131" height="22" rx="6" fill="#22c55e" fill-opacity="0.10" stroke="#22c55e" stroke-width="0.5" stroke-opacity="0.25"/>
<text x="129" y="191" text-anchor="middle" font-family="ui-monospace,monospace" font-size="9" font-weight="600" fill="#e2e8f0" opacity="0.85">Spark</text>
<rect x="64" y="204" width="131" height="22" rx="6" fill="#22c55e" fill-opacity="0.10" stroke="#22c55e" stroke-width="0.5" stroke-opacity="0.25"/>
<text x="129" y="218" text-anchor="middle" font-family="ui-monospace,monospace" font-size="9" font-weight="600" fill="#e2e8f0" opacity="0.85">dbt</text>
<rect x="64" y="231" width="131" height="22" rx="6" fill="#22c55e" fill-opacity="0.10" stroke="#22c55e" stroke-width="0.5" stroke-opacity="0.25"/>
<text x="129" y="245" text-anchor="middle" font-family="ui-monospace,monospace" font-size="9" font-weight="600" fill="#e2e8f0" opacity="0.85">S3</text>
<rect x="64" y="258" width="131" height="22" rx="6" fill="#22c55e" fill-opacity="0.10" stroke="#22c55e" stroke-width="0.5" stroke-opacity="0.25"/>
<text x="129" y="272" text-anchor="middle" font-family="ui-monospace,monospace" font-size="9" font-weight="600" fill="#e2e8f0" opacity="0.85">Airflow</text>
<text x="193" y="258" text-anchor="end" font-family="ui-monospace,monospace" font-size="28" font-weight="900" fill="#22c55e" fill-opacity="0.08">1</text>
<line x1="209" y1="165" x2="225" y2="165" stroke="#334155" stroke-width="1.5" stroke-dasharray="3,2"/>
<polygon points="225,165 219,161 219,169" fill="#475569"/>
<rect x="230" y="63" width="155" height="210" rx="14" fill="#f59e0b" fill-opacity="0.08"/>
<defs><linearGradient id="cg1" x1="0" y1="0" x2="0" y2="1"><stop offset="0%" stop-color="#2c1c01" stop-opacity="1"/><stop offset="100%" stop-color="#130c00" stop-opacity="1"/></linearGradient></defs>
<rect x="227" y="60" width="155" height="210" rx="14" fill="url(#cg1)" stroke="#f59e0b" stroke-width="1" stroke-opacity="0.35"/>
<rect x="227" y="60" width="155" height="38" rx="14" fill="#f59e0b" fill-opacity="0.18"/>
<rect x="227" y="84" width="155" height="14" fill="#f59e0b" fill-opacity="0.18"/>
<rect x="239" y="60" width="131" height="3" rx="1.5" fill="#f59e0b" fill-opacity="0.9"/>
<rect x="237" y="70" width="52" height="16" rx="8" fill="#f59e0b" fill-opacity="0.25" stroke="#f59e0b" stroke-width="0.8" stroke-opacity="0.6"/>
<text x="242" y="82" font-family="ui-monospace,monospace" font-size="7.5" font-weight="700" fill="#f59e0b" opacity="0.95">ML OPS</text>
<text x="304" y="110" text-anchor="middle" font-family="ui-monospace,monospace" font-size="10.5" font-weight="800" fill="#f1f5f9" opacity="0.95">ML</text>
<text x="304" y="123" text-anchor="middle" font-family="ui-monospace,monospace" font-size="10.5" font-weight="800" fill="#f1f5f9" opacity="0.95">Platform</text>
<line x1="239" y1="136" x2="370" y2="136" stroke="#f59e0b" stroke-width="0.6" stroke-opacity="0.3"/>
<rect x="239" y="150" width="131" height="22" rx="6" fill="#f59e0b" fill-opacity="0.10" stroke="#f59e0b" stroke-width="0.5" stroke-opacity="0.25"/>
<text x="304" y="164" text-anchor="middle" font-family="ui-monospace,monospace" font-size="9" font-weight="600" fill="#e2e8f0" opacity="0.85">Feast</text>
<rect x="239" y="177" width="131" height="22" rx="6" fill="#f59e0b" fill-opacity="0.10" stroke="#f59e0b" stroke-width="0.5" stroke-opacity="0.25"/>
<text x="304" y="191" text-anchor="middle" font-family="ui-monospace,monospace" font-size="9" font-weight="600" fill="#e2e8f0" opacity="0.85">MLflow</text>
<rect x="239" y="204" width="131" height="22" rx="6" fill="#f59e0b" fill-opacity="0.10" stroke="#f59e0b" stroke-width="0.5" stroke-opacity="0.25"/>
<text x="304" y="218" text-anchor="middle" font-family="ui-monospace,monospace" font-size="9" font-weight="600" fill="#e2e8f0" opacity="0.85">SageMaker</text>
<rect x="239" y="231" width="131" height="22" rx="6" fill="#f59e0b" fill-opacity="0.10" stroke="#f59e0b" stroke-width="0.5" stroke-opacity="0.25"/>
<text x="304" y="245" text-anchor="middle" font-family="ui-monospace,monospace" font-size="9" font-weight="600" fill="#e2e8f0" opacity="0.85">Redis</text>
<text x="368" y="258" text-anchor="end" font-family="ui-monospace,monospace" font-size="28" font-weight="900" fill="#f59e0b" fill-opacity="0.08">2</text>
<line x1="384" y1="165" x2="400" y2="165" stroke="#334155" stroke-width="1.5" stroke-dasharray="3,2"/>
<polygon points="400,165 394,161 394,169" fill="#475569"/>
<rect x="405" y="63" width="155" height="210" rx="14" fill="#06b6d4" fill-opacity="0.08"/>
<defs><linearGradient id="cg2" x1="0" y1="0" x2="0" y2="1"><stop offset="0%" stop-color="#012026" stop-opacity="1"/><stop offset="100%" stop-color="#000e10" stop-opacity="1"/></linearGradient></defs>
<rect x="402" y="60" width="155" height="210" rx="14" fill="url(#cg2)" stroke="#06b6d4" stroke-width="1" stroke-opacity="0.35"/>
<rect x="402" y="60" width="155" height="38" rx="14" fill="#06b6d4" fill-opacity="0.18"/>
<rect x="402" y="84" width="155" height="14" fill="#06b6d4" fill-opacity="0.18"/>
<rect x="414" y="60" width="131" height="3" rx="1.5" fill="#06b6d4" fill-opacity="0.9"/>
<rect x="412" y="70" width="59" height="16" rx="8" fill="#06b6d4" fill-opacity="0.25" stroke="#06b6d4" stroke-width="0.8" stroke-opacity="0.6"/>
<text x="417" y="82" font-family="ui-monospace,monospace" font-size="7.5" font-weight="700" fill="#06b6d4" opacity="0.95">GATEWAY</text>
<text x="479" y="110" text-anchor="middle" font-family="ui-monospace,monospace" font-size="10.5" font-weight="800" fill="#f1f5f9" opacity="0.95">LLM</text>
<text x="479" y="123" text-anchor="middle" font-family="ui-monospace,monospace" font-size="10.5" font-weight="800" fill="#f1f5f9" opacity="0.95">Gateway</text>
<line x1="414" y1="136" x2="545" y2="136" stroke="#06b6d4" stroke-width="0.6" stroke-opacity="0.3"/>
<rect x="414" y="150" width="131" height="22" rx="6" fill="#06b6d4" fill-opacity="0.10" stroke="#06b6d4" stroke-width="0.5" stroke-opacity="0.25"/>
<text x="479" y="164" text-anchor="middle" font-family="ui-monospace,monospace" font-size="9" font-weight="600" fill="#e2e8f0" opacity="0.85">FastAPI</text>
<rect x="414" y="177" width="131" height="22" rx="6" fill="#06b6d4" fill-opacity="0.10" stroke="#06b6d4" stroke-width="0.5" stroke-opacity="0.25"/>
<text x="479" y="191" text-anchor="middle" font-family="ui-monospace,monospace" font-size="9" font-weight="600" fill="#e2e8f0" opacity="0.85">Sem Cache</text>
<rect x="414" y="204" width="131" height="22" rx="6" fill="#06b6d4" fill-opacity="0.10" stroke="#06b6d4" stroke-width="0.5" stroke-opacity="0.25"/>
<text x="479" y="218" text-anchor="middle" font-family="ui-monospace,monospace" font-size="9" font-weight="600" fill="#e2e8f0" opacity="0.85">Router</text>
<rect x="414" y="231" width="131" height="22" rx="6" fill="#06b6d4" fill-opacity="0.10" stroke="#06b6d4" stroke-width="0.5" stroke-opacity="0.25"/>
<text x="479" y="245" text-anchor="middle" font-family="ui-monospace,monospace" font-size="9" font-weight="600" fill="#e2e8f0" opacity="0.85">Auth</text>
<text x="543" y="258" text-anchor="end" font-family="ui-monospace,monospace" font-size="28" font-weight="900" fill="#06b6d4" fill-opacity="0.08">3</text>
<line x1="559" y1="165" x2="575" y2="165" stroke="#334155" stroke-width="1.5" stroke-dasharray="3,2"/>
<polygon points="575,165 569,161 569,169" fill="#475569"/>
<rect x="580" y="63" width="155" height="210" rx="14" fill="#6366f1" fill-opacity="0.08"/>
<defs><linearGradient id="cg3" x1="0" y1="0" x2="0" y2="1"><stop offset="0%" stop-color="#11122b" stop-opacity="1"/><stop offset="100%" stop-color="#070813" stop-opacity="1"/></linearGradient></defs>
<rect x="577" y="60" width="155" height="210" rx="14" fill="url(#cg3)" stroke="#6366f1" stroke-width="1" stroke-opacity="0.35"/>
<rect x="577" y="60" width="155" height="38" rx="14" fill="#6366f1" fill-opacity="0.18"/>
<rect x="577" y="84" width="155" height="14" fill="#6366f1" fill-opacity="0.18"/>
<rect x="589" y="60" width="131" height="3" rx="1.5" fill="#6366f1" fill-opacity="0.9"/>
<rect x="587" y="70" width="52" height="16" rx="8" fill="#6366f1" fill-opacity="0.25" stroke="#6366f1" stroke-width="0.8" stroke-opacity="0.6"/>
<text x="592" y="82" font-family="ui-monospace,monospace" font-size="7.5" font-weight="700" fill="#6366f1" opacity="0.95">AGENTS</text>
<text x="654" y="110" text-anchor="middle" font-family="ui-monospace,monospace" font-size="10.5" font-weight="800" fill="#f1f5f9" opacity="0.95">Agent</text>
<text x="654" y="123" text-anchor="middle" font-family="ui-monospace,monospace" font-size="10.5" font-weight="800" fill="#f1f5f9" opacity="0.95">Layer</text>
<line x1="589" y1="136" x2="720" y2="136" stroke="#6366f1" stroke-width="0.6" stroke-opacity="0.3"/>
<rect x="589" y="150" width="131" height="22" rx="6" fill="#6366f1" fill-opacity="0.10" stroke="#6366f1" stroke-width="0.5" stroke-opacity="0.25"/>
<text x="654" y="164" text-anchor="middle" font-family="ui-monospace,monospace" font-size="9" font-weight="600" fill="#e2e8f0" opacity="0.85">LangGraph</text>
<rect x="589" y="177" width="131" height="22" rx="6" fill="#6366f1" fill-opacity="0.10" stroke="#6366f1" stroke-width="0.5" stroke-opacity="0.25"/>
<text x="654" y="191" text-anchor="middle" font-family="ui-monospace,monospace" font-size="9" font-weight="600" fill="#e2e8f0" opacity="0.85">MCP</text>
<rect x="589" y="204" width="131" height="22" rx="6" fill="#6366f1" fill-opacity="0.10" stroke="#6366f1" stroke-width="0.5" stroke-opacity="0.25"/>
<text x="654" y="218" text-anchor="middle" font-family="ui-monospace,monospace" font-size="9" font-weight="600" fill="#e2e8f0" opacity="0.85">Claude</text>
<rect x="589" y="231" width="131" height="22" rx="6" fill="#6366f1" fill-opacity="0.10" stroke="#6366f1" stroke-width="0.5" stroke-opacity="0.25"/>
<text x="654" y="245" text-anchor="middle" font-family="ui-monospace,monospace" font-size="9" font-weight="600" fill="#e2e8f0" opacity="0.85">Tools</text>
<text x="718" y="258" text-anchor="end" font-family="ui-monospace,monospace" font-size="28" font-weight="900" fill="#6366f1" fill-opacity="0.08">4</text>
<line x1="734" y1="165" x2="750" y2="165" stroke="#334155" stroke-width="1.5" stroke-dasharray="3,2"/>
<polygon points="750,165 744,161 744,169" fill="#475569"/>
<rect x="755" y="63" width="155" height="210" rx="14" fill="#a855f7" fill-opacity="0.08"/>
<defs><linearGradient id="cg4" x1="0" y1="0" x2="0" y2="1"><stop offset="0%" stop-color="#1e0f2c" stop-opacity="1"/><stop offset="100%" stop-color="#0d0613" stop-opacity="1"/></linearGradient></defs>
<rect x="752" y="60" width="155" height="210" rx="14" fill="url(#cg4)" stroke="#a855f7" stroke-width="1" stroke-opacity="0.35"/>
<rect x="752" y="60" width="155" height="38" rx="14" fill="#a855f7" fill-opacity="0.18"/>
<rect x="752" y="84" width="155" height="14" fill="#a855f7" fill-opacity="0.18"/>
<rect x="764" y="60" width="131" height="3" rx="1.5" fill="#a855f7" fill-opacity="0.9"/>
<rect x="762" y="70" width="31" height="16" rx="8" fill="#a855f7" fill-opacity="0.25" stroke="#a855f7" stroke-width="0.8" stroke-opacity="0.6"/>
<text x="767" y="82" font-family="ui-monospace,monospace" font-size="7.5" font-weight="700" fill="#a855f7" opacity="0.95">OBS</text>
<text x="829" y="110" text-anchor="middle" font-family="ui-monospace,monospace" font-size="10.5" font-weight="800" fill="#f1f5f9" opacity="0.95">Observability</text>
<line x1="764" y1="136" x2="895" y2="136" stroke="#a855f7" stroke-width="0.6" stroke-opacity="0.3"/>
<rect x="764" y="150" width="131" height="22" rx="6" fill="#a855f7" fill-opacity="0.10" stroke="#a855f7" stroke-width="0.5" stroke-opacity="0.25"/>
<text x="829" y="164" text-anchor="middle" font-family="ui-monospace,monospace" font-size="9" font-weight="600" fill="#e2e8f0" opacity="0.85">Evidently</text>
<rect x="764" y="177" width="131" height="22" rx="6" fill="#a855f7" fill-opacity="0.10" stroke="#a855f7" stroke-width="0.5" stroke-opacity="0.25"/>
<text x="829" y="191" text-anchor="middle" font-family="ui-monospace,monospace" font-size="9" font-weight="600" fill="#e2e8f0" opacity="0.85">RAGAS</text>
<rect x="764" y="204" width="131" height="22" rx="6" fill="#a855f7" fill-opacity="0.10" stroke="#a855f7" stroke-width="0.5" stroke-opacity="0.25"/>
<text x="829" y="218" text-anchor="middle" font-family="ui-monospace,monospace" font-size="9" font-weight="600" fill="#e2e8f0" opacity="0.85">Grafana</text>
<rect x="764" y="231" width="131" height="22" rx="6" fill="#a855f7" fill-opacity="0.10" stroke="#a855f7" stroke-width="0.5" stroke-opacity="0.25"/>
<text x="829" y="245" text-anchor="middle" font-family="ui-monospace,monospace" font-size="9" font-weight="600" fill="#e2e8f0" opacity="0.85">Alerts</text>
<text x="893" y="258" text-anchor="end" font-family="ui-monospace,monospace" font-size="28" font-weight="900" fill="#a855f7" fill-opacity="0.08">5</text>
<text x="480" y="328" text-anchor="middle" font-family="ui-monospace,monospace" font-size="8" fill="#1e293b" letter-spacing="1">shaikn6 · github.com/shaikn6</text>
</svg>