<svg xmlns="http://www.w3.org/2000/svg" viewBox="0 0 960 520" width="960" height="520">
<rect width="960" height="520" fill="#0d1117"/><defs>
    <linearGradient id="g_Data_Ingestion" x1="0" y1="0" x2="0" y2="1">
      <stop offset="0%" stop-color="#55e289" stop-opacity="1"/>
      <stop offset="100%" stop-color="#16a34a" stop-opacity="1"/>
    </linearGradient>
    <filter id="glow_Data_Ingestion" x="-20%" y="-20%" width="140%" height="140%">
      <feGaussianBlur stdDeviation="3" result="blur"/>
      <feMerge><feMergeNode in="blur"/><feMergeNode in="SourceGraphic"/></feMerge>
    </filter>
    <linearGradient id="g_ML_Platform" x1="0" y1="0" x2="0" y2="1">
      <stop offset="0%" stop-color="#ffb645" stop-opacity="1"/>
      <stop offset="100%" stop-color="#d97706" stop-opacity="1"/>
    </linearGradient>
    <filter id="glow_ML_Platform" x="-20%" y="-20%" width="140%" height="140%">
      <feGaussianBlur stdDeviation="3" result="blur"/>
      <feMerge><feMergeNode in="blur"/><feMergeNode in="SourceGraphic"/></feMerge>
    </filter>
    <linearGradient id="g_LLM_Gateway" x1="0" y1="0" x2="0" y2="1">
      <stop offset="0%" stop-color="#47d0f1" stop-opacity="1"/>
      <stop offset="100%" stop-color="#0891b2" stop-opacity="1"/>
    </linearGradient>
    <filter id="glow_LLM_Gateway" x="-20%" y="-20%" width="140%" height="140%">
      <feGaussianBlur stdDeviation="3" result="blur"/>
      <feMerge><feMergeNode in="blur"/><feMergeNode in="SourceGraphic"/></feMerge>
    </filter>
    <linearGradient id="g_Agent_Layer" x1="0" y1="0" x2="0" y2="1">
      <stop offset="0%" stop-color="#64a2ff" stop-opacity="1"/>
      <stop offset="100%" stop-color="#2563eb" stop-opacity="1"/>
    </linearGradient>
    <filter id="glow_Agent_Layer" x="-20%" y="-20%" width="140%" height="140%">
      <feGaussianBlur stdDeviation="3" result="blur"/>
      <feMerge><feMergeNode in="blur"/><feMergeNode in="SourceGraphic"/></feMerge>
    </filter>
    <linearGradient id="g_Observability" x1="0" y1="0" x2="0" y2="1">
      <stop offset="0%" stop-color="#d272ff" stop-opacity="1"/>
      <stop offset="100%" stop-color="#9333ea" stop-opacity="1"/>
    </linearGradient>
    <filter id="glow_Observability" x="-20%" y="-20%" width="140%" height="140%">
      <feGaussianBlur stdDeviation="3" result="blur"/>
      <feMerge><feMergeNode in="blur"/><feMergeNode in="SourceGraphic"/></feMerge>
    </filter></defs><circle cx="20" cy="20" r="0.8" fill="#ffffff" fill-opacity="0.04"/><circle cx="20" cy="56" r="0.8" fill="#ffffff" fill-opacity="0.04"/><circle cx="20" cy="92" r="0.8" fill="#ffffff" fill-opacity="0.04"/><circle cx="20" cy="128" r="0.8" fill="#ffffff" fill-opacity="0.04"/><circle cx="20" cy="164" r="0.8" fill="#ffffff" fill-opacity="0.04"/><circle cx="20" cy="200" r="0.8" fill="#ffffff" fill-opacity="0.04"/><circle cx="20" cy="236" r="0.8" fill="#ffffff" fill-opacity="0.04"/><circle cx="20" cy="272" r="0.8" fill="#ffffff" fill-opacity="0.04"/><circle cx="20" cy="308" r="0.8" fill="#ffffff" fill-opacity="0.04"/><circle cx="20" cy="344" r="0.8" fill="#ffffff" fill-opacity="0.04"/><circle cx="20" cy="380" r="0.8" fill="#ffffff" fill-opacity="0.04"/><circle cx="20" cy="416" r="0.8" fill="#ffffff" fill-opacity="0.04"/><circle cx="20" cy="452" r="0.8" fill="#ffffff" fill-opacity="0.04"/><circle cx="20" cy="488" r="0.8" fill="#ffffff" fill-opacity="0.04"/><circle cx="56" cy="20" r="0.8" fill="#ffffff" fill-opacity="0.04"/><circle cx="56" cy="56" r="0.8" fill="#ffffff" fill-opacity="0.04"/><circle cx="56" cy="92" r="0.8" fill="#ffffff" fill-opacity="0.04"/><circle cx="56" cy="128" r="0.8" fill="#ffffff" fill-opacity="0.04"/><circle cx="56" cy="164" r="0.8" fill="#ffffff" fill-opacity="0.04"/><circle cx="56" cy="200" r="0.8" fill="#ffffff" fill-opacity="0.04"/><circle cx="56" cy="236" r="0.8" fill="#ffffff" fill-opacity="0.04"/><circle cx="56" cy="272" r="0.8" fill="#ffffff" fill-opacity="0.04"/><circle cx="56" cy="308" r="0.8" fill="#ffffff" fill-opacity="0.04"/><circle cx="56" cy="344" r="0.8" fill="#ffffff" fill-opacity="0.04"/><circle cx="56" cy="380" r="0.8" fill="#ffffff" fill-opacity="0.04"/><circle cx="56" cy="416" r="0.8" fill="#ffffff" fill-opacity="0.04"/><circle cx="56" cy="452" r="0.8" fill="#ffffff" fill-opacity="0.04"/><circle cx="56" cy="488" r="0.8" fill="#ffffff" fill-opacity="0.04"/><circle cx="92" cy="20" r="0.8" fill="#ffffff" fill-opacity="0.04"/><circle cx="92" cy="56" r="0.8" fill="#ffffff" fill-opacity="0.04"/><circle cx="92" cy="92" r="0.8" fill="#ffffff" fill-opacity="0.04"/><circle cx="92" cy="128" r="0.8" fill="#ffffff" fill-opacity="0.04"/><circle cx="92" cy="164" r="0.8" fill="#ffffff" fill-opacity="0.04"/><circle cx="92" cy="200" r="0.8" fill="#ffffff" fill-opacity="0.04"/><circle cx="92" cy="236" r="0.8" fill="#ffffff" fill-opacity="0.04"/><circle cx="92" cy="272" r="0.8" fill="#ffffff" fill-opacity="0.04"/><circle cx="92" cy="308" r="0.8" fill="#ffffff" fill-opacity="0.04"/><circle cx="92" cy="344" r="0.8" fill="#ffffff" fill-opacity="0.04"/><circle cx="92" cy="380" r="0.8" fill="#ffffff" fill-opacity="0.04"/><circle cx="92" cy="416" r="0.8" fill="#ffffff" fill-opacity="0.04"/><circle cx="92" cy="452" r="0.8" fill="#ffffff" fill-opacity="0.04"/><circle cx="92" cy="488" r="0.8" fill="#ffffff" fill-opacity="0.04"/><circle cx="128" cy="20" r="0.8" fill="#ffffff" fill-opacity="0.04"/><circle cx="128" cy="56" r="0.8" fill="#ffffff" fill-opacity="0.04"/><circle cx="128" cy="92" r="0.8" fill="#ffffff" fill-opacity="0.04"/><circle cx="128" cy="128" r="0.8" fill="#ffffff" fill-opacity="0.04"/><circle cx="128" cy="164" r="0.8" fill="#ffffff" fill-opacity="0.04"/><circle cx="128" cy="200" r="0.8" fill="#ffffff" fill-opacity="0.04"/><circle cx="128" cy="236" r="0.8" fill="#ffffff" fill-opacity="0.04"/><circle cx="128" cy="272" r="0.8" fill="#ffffff" fill-opacity="0.04"/><circle cx="128" cy="308" r="0.8" fill="#ffffff" fill-opacity="0.04"/><circle cx="128" cy="344" r="0.8" fill="#ffffff" fill-opacity="0.04"/><circle cx="128" cy="380" r="0.8" fill="#ffffff" fill-opacity="0.04"/><circle cx="128" cy="416" r="0.8" fill="#ffffff" fill-opacity="0.04"/><circle cx="128" cy="452" r="0.8" fill="#ffffff" fill-opacity="0.04"/><circle cx="128" cy="488" r="0.8" fill="#ffffff" fill-opacity="0.04"/><circle cx="164" cy="20" r="0.8" fill="#ffffff" fill-opacity="0.04"/><circle cx="164" cy="56" r="0.8" fill="#ffffff" fill-opacity="0.04"/><circle cx="164" cy="92" r="0.8" fill="#ffffff" fill-opacity="0.04"/><circle cx="164" cy="128" r="0.8" fill="#ffffff" fill-opacity="0.04"/><circle cx="164" cy="164" r="0.8" fill="#ffffff" fill-opacity="0.04"/><circle cx="164" cy="200" r="0.8" fill="#ffffff" fill-opacity="0.04"/><circle cx="164" cy="236" r="0.8" fill="#ffffff" fill-opacity="0.04"/><circle cx="164" cy="272" r="0.8" fill="#ffffff" fill-opacity="0.04"/><circle cx="164" cy="308" r="0.8" fill="#ffffff" fill-opacity="0.04"/><circle cx="164" cy="344" r="0.8" fill="#ffffff" fill-opacity="0.04"/><circle cx="164" cy="380" r="0.8" fill="#ffffff" fill-opacity="0.04"/><circle cx="164" cy="416" r="0.8" fill="#ffffff" fill-opacity="0.04"/><circle cx="164" cy="452" r="0.8" fill="#ffffff" fill-opacity="0.04"/><circle cx="164" cy="488" r="0.8" fill="#ffffff" fill-opacity="0.04"/><circle cx="200" cy="20" r="0.8" fill="#ffffff" fill-opacity="0.04"/><circle cx="200" cy="56" r="0.8" fill="#ffffff" fill-opacity="0.04"/><circle cx="200" cy="92" r="0.8" fill="#ffffff" fill-opacity="0.04"/><circle cx="200" cy="128" r="0.8" fill="#ffffff" fill-opacity="0.04"/><circle cx="200" cy="164" r="0.8" fill="#ffffff" fill-opacity="0.04"/><circle cx="200" cy="200" r="0.8" fill="#ffffff" fill-opacity="0.04"/><circle cx="200" cy="236" r="0.8" fill="#ffffff" fill-opacity="0.04"/><circle cx="200" cy="272" r="0.8" fill="#ffffff" fill-opacity="0.04"/><circle cx="200" cy="308" r="0.8" fill="#ffffff" fill-opacity="0.04"/><circle cx="200" cy="344" r="0.8" fill="#ffffff" fill-opacity="0.04"/><circle cx="200" cy="380" r="0.8" fill="#ffffff" fill-opacity="0.04"/><circle cx="200" cy="416" r="0.8" fill="#ffffff" fill-opacity="0.04"/><circle cx="200" cy="452" r="0.8" fill="#ffffff" fill-opacity="0.04"/><circle cx="200" cy="488" r="0.8" fill="#ffffff" fill-opacity="0.04"/><circle cx="236" cy="20" r="0.8" fill="#ffffff" fill-opacity="0.04"/><circle cx="236" cy="56" r="0.8" fill="#ffffff" fill-opacity="0.04"/><circle cx="236" cy="92" r="0.8" fill="#ffffff" fill-opacity="0.04"/><circle cx="236" cy="128" r="0.8" fill="#ffffff" fill-opacity="0.04"/><circle cx="236" cy="164" r="0.8" fill="#ffffff" fill-opacity="0.04"/><circle cx="236" cy="200" r="0.8" fill="#ffffff" fill-opacity="0.04"/><circle cx="236" cy="236" r="0.8" fill="#ffffff" fill-opacity="0.04"/><circle cx="236" cy="272" r="0.8" fill="#ffffff" fill-opacity="0.04"/><circle cx="236" cy="308" r="0.8" fill="#ffffff" fill-opacity="0.04"/><circle cx="236" cy="344" r="0.8" fill="#ffffff" fill-opacity="0.04"/><circle cx="236" cy="380" r="0.8" fill="#ffffff" fill-opacity="0.04"/><circle cx="236" cy="416" r="0.8" fill="#ffffff" fill-opacity="0.04"/><circle cx="236" cy="452" r="0.8" fill="#ffffff" fill-opacity="0.04"/><circle cx="236" cy="488" r="0.8" fill="#ffffff" fill-opacity="0.04"/><circle cx="272" cy="20" r="0.8" fill="#ffffff" fill-opacity="0.04"/><circle cx="272" cy="56" r="0.8" fill="#ffffff" fill-opacity="0.04"/><circle cx="272" cy="92" r="0.8" fill="#ffffff" fill-opacity="0.04"/><circle cx="272" cy="128" r="0.8" fill="#ffffff" fill-opacity="0.04"/><circle cx="272" cy="164" r="0.8" fill="#ffffff" fill-opacity="0.04"/><circle cx="272" cy="200" r="0.8" fill="#ffffff" fill-opacity="0.04"/><circle cx="272" cy="236" r="0.8" fill="#ffffff" fill-opacity="0.04"/><circle cx="272" cy="272" r="0.8" fill="#ffffff" fill-opacity="0.04"/><circle cx="272" cy="308" r="0.8" fill="#ffffff" fill-opacity="0.04"/><circle cx="272" cy="344" r="0.8" fill="#ffffff" fill-opacity="0.04"/><circle cx="272" cy="380" r="0.8" fill="#ffffff" fill-opacity="0.04"/><circle cx="272" cy="416" r="0.8" fill="#ffffff" fill-opacity="0.04"/><circle cx="272" cy="452" r="0.8" fill="#ffffff" fill-opacity="0.04"/><circle cx="272" cy="488" r="0.8" fill="#ffffff" fill-opacity="0.04"/><circle cx="308" cy="20" r="0.8" fill="#ffffff" fill-opacity="0.04"/><circle cx="308" cy="56" r="0.8" fill="#ffffff" fill-opacity="0.04"/><circle cx="308" cy="92" r="0.8" fill="#ffffff" fill-opacity="0.04"/><circle cx="308" cy="128" r="0.8" fill="#ffffff" fill-opacity="0.04"/><circle cx="308" cy="164" r="0.8" fill="#ffffff" fill-opacity="0.04"/><circle cx="308" cy="200" r="0.8" fill="#ffffff" fill-opacity="0.04"/><circle cx="308" cy="236" r="0.8" fill="#ffffff" fill-opacity="0.04"/><circle cx="308" cy="272" r="0.8" fill="#ffffff" fill-opacity="0.04"/><circle cx="308" cy="308" r="0.8" fill="#ffffff" fill-opacity="0.04"/><circle cx="308" cy="344" r="0.8" fill="#ffffff" fill-opacity="0.04"/><circle cx="308" cy="380" r="0.8" fill="#ffffff" fill-opacity="0.04"/><circle cx="308" cy="416" r="0.8" fill="#ffffff" fill-opacity="0.04"/><circle cx="308" cy="452" r="0.8" fill="#ffffff" fill-opacity="0.04"/><circle cx="308" cy="488" r="0.8" fill="#ffffff" fill-opacity="0.04"/><circle cx="344" cy="20" r="0.8" fill="#ffffff" fill-opacity="0.04"/><circle cx="344" cy="56" r="0.8" fill="#ffffff" fill-opacity="0.04"/><circle cx="344" cy="92" r="0.8" fill="#ffffff" fill-opacity="0.04"/><circle cx="344" cy="128" r="0.8" fill="#ffffff" fill-opacity="0.04"/><circle cx="344" cy="164" r="0.8" fill="#ffffff" fill-opacity="0.04"/><circle cx="344" cy="200" r="0.8" fill="#ffffff" fill-opacity="0.04"/><circle cx="344" cy="236" r="0.8" fill="#ffffff" fill-opacity="0.04"/><circle cx="344" cy="272" r="0.8" fill="#ffffff" fill-opacity="0.04"/><circle cx="344" cy="308" r="0.8" fill="#ffffff" fill-opacity="0.04"/><circle cx="344" cy="344" r="0.8" fill="#ffffff" fill-opacity="0.04"/><circle cx="344" cy="380" r="0.8" fill="#ffffff" fill-opacity="0.04"/><circle cx="344" cy="416" r="0.8" fill="#ffffff" fill-opacity="0.04"/><circle cx="344" cy="452" r="0.8" fill="#ffffff" fill-opacity="0.04"/><circle cx="344" cy="488" r="0.8" fill="#ffffff" fill-opacity="0.04"/><circle cx="380" cy="20" r="0.8" fill="#ffffff" fill-opacity="0.04"/><circle cx="380" cy="56" r="0.8" fill="#ffffff" fill-opacity="0.04"/><circle cx="380" cy="92" r="0.8" fill="#ffffff" fill-opacity="0.04"/><circle cx="380" cy="128" r="0.8" fill="#ffffff" fill-opacity="0.04"/><circle cx="380" cy="164" r="0.8" fill="#ffffff" fill-opacity="0.04"/><circle cx="380" cy="200" r="0.8" fill="#ffffff" fill-opacity="0.04"/><circle cx="380" cy="236" r="0.8" fill="#ffffff" fill-opacity="0.04"/><circle cx="380" cy="272" r="0.8" fill="#ffffff" fill-opacity="0.04"/><circle cx="380" cy="308" r="0.8" fill="#ffffff" fill-opacity="0.04"/><circle cx="380" cy="344" r="0.8" fill="#ffffff" fill-opacity="0.04"/><circle cx="380" cy="380" r="0.8" fill="#ffffff" fill-opacity="0.04"/><circle cx="380" cy="416" r="0.8" fill="#ffffff" fill-opacity="0.04"/><circle cx="380" cy="452" r="0.8" fill="#ffffff" fill-opacity="0.04"/><circle cx="380" cy="488" r="0.8" fill="#ffffff" fill-opacity="0.04"/><circle cx="416" cy="20" r="0.8" fill="#ffffff" fill-opacity="0.04"/><circle cx="416" cy="56" r="0.8" fill="#ffffff" fill-opacity="0.04"/><circle cx="416" cy="92" r="0.8" fill="#ffffff" fill-opacity="0.04"/><circle cx="416" cy="128" r="0.8" fill="#ffffff" fill-opacity="0.04"/><circle cx="416" cy="164" r="0.8" fill="#ffffff" fill-opacity="0.04"/><circle cx="416" cy="200" r="0.8" fill="#ffffff" fill-opacity="0.04"/><circle cx="416" cy="236" r="0.8" fill="#ffffff" fill-opacity="0.04"/><circle cx="416" cy="272" r="0.8" fill="#ffffff" fill-opacity="0.04"/><circle cx="416" cy="308" r="0.8" fill="#ffffff" fill-opacity="0.04"/><circle cx="416" cy="344" r="0.8" fill="#ffffff" fill-opacity="0.04"/><circle cx="416" cy="380" r="0.8" fill="#ffffff" fill-opacity="0.04"/><circle cx="416" cy="416" r="0.8" fill="#ffffff" fill-opacity="0.04"/><circle cx="416" cy="452" r="0.8" fill="#ffffff" fill-opacity="0.04"/><circle cx="416" cy="488" r="0.8" fill="#ffffff" fill-opacity="0.04"/><circle cx="452" cy="20" r="0.8" fill="#ffffff" fill-opacity="0.04"/><circle cx="452" cy="56" r="0.8" fill="#ffffff" fill-opacity="0.04"/><circle cx="452" cy="92" r="0.8" fill="#ffffff" fill-opacity="0.04"/><circle cx="452" cy="128" r="0.8" fill="#ffffff" fill-opacity="0.04"/><circle cx="452" cy="164" r="0.8" fill="#ffffff" fill-opacity="0.04"/><circle cx="452" cy="200" r="0.8" fill="#ffffff" fill-opacity="0.04"/><circle cx="452" cy="236" r="0.8" fill="#ffffff" fill-opacity="0.04"/><circle cx="452" cy="272" r="0.8" fill="#ffffff" fill-opacity="0.04"/><circle cx="452" cy="308" r="0.8" fill="#ffffff" fill-opacity="0.04"/><circle cx="452" cy="344" r="0.8" fill="#ffffff" fill-opacity="0.04"/><circle cx="452" cy="380" r="0.8" fill="#ffffff" fill-opacity="0.04"/><circle cx="452" cy="416" r="0.8" fill="#ffffff" fill-opacity="0.04"/><circle cx="452" cy="452" r="0.8" fill="#ffffff" fill-opacity="0.04"/><circle cx="452" cy="488" r="0.8" fill="#ffffff" fill-opacity="0.04"/><circle cx="488" cy="20" r="0.8" fill="#ffffff" fill-opacity="0.04"/><circle cx="488" cy="56" r="0.8" fill="#ffffff" fill-opacity="0.04"/><circle cx="488" cy="92" r="0.8" fill="#ffffff" fill-opacity="0.04"/><circle cx="488" cy="128" r="0.8" fill="#ffffff" fill-opacity="0.04"/><circle cx="488" cy="164" r="0.8" fill="#ffffff" fill-opacity="0.04"/><circle cx="488" cy="200" r="0.8" fill="#ffffff" fill-opacity="0.04"/><circle cx="488" cy="236" r="0.8" fill="#ffffff" fill-opacity="0.04"/><circle cx="488" cy="272" r="0.8" fill="#ffffff" fill-opacity="0.04"/><circle cx="488" cy="308" r="0.8" fill="#ffffff" fill-opacity="0.04"/><circle cx="488" cy="344" r="0.8" fill="#ffffff" fill-opacity="0.04"/><circle cx="488" cy="380" r="0.8" fill="#ffffff" fill-opacity="0.04"/><circle cx="488" cy="416" r="0.8" fill="#ffffff" fill-opacity="0.04"/><circle cx="488" cy="452" r="0.8" fill="#ffffff" fill-opacity="0.04"/><circle cx="488" cy="488" r="0.8" fill="#ffffff" fill-opacity="0.04"/><circle cx="524" cy="20" r="0.8" fill="#ffffff" fill-opacity="0.04"/><circle cx="524" cy="56" r="0.8" fill="#ffffff" fill-opacity="0.04"/><circle cx="524" cy="92" r="0.8" fill="#ffffff" fill-opacity="0.04"/><circle cx="524" cy="128" r="0.8" fill="#ffffff" fill-opacity="0.04"/><circle cx="524" cy="164" r="0.8" fill="#ffffff" fill-opacity="0.04"/><circle cx="524" cy="200" r="0.8" fill="#ffffff" fill-opacity="0.04"/><circle cx="524" cy="236" r="0.8" fill="#ffffff" fill-opacity="0.04"/><circle cx="524" cy="272" r="0.8" fill="#ffffff" fill-opacity="0.04"/><circle cx="524" cy="308" r="0.8" fill="#ffffff" fill-opacity="0.04"/><circle cx="524" cy="344" r="0.8" fill="#ffffff" fill-opacity="0.04"/><circle cx="524" cy="380" r="0.8" fill="#ffffff" fill-opacity="0.04"/><circle cx="524" cy="416" r="0.8" fill="#ffffff" fill-opacity="0.04"/><circle cx="524" cy="452" r="0.8" fill="#ffffff" fill-opacity="0.04"/><circle cx="524" cy="488" r="0.8" fill="#ffffff" fill-opacity="0.04"/><circle cx="560" cy="20" r="0.8" fill="#ffffff" fill-opacity="0.04"/><circle cx="560" cy="56" r="0.8" fill="#ffffff" fill-opacity="0.04"/><circle cx="560" cy="92" r="0.8" fill="#ffffff" fill-opacity="0.04"/><circle cx="560" cy="128" r="0.8" fill="#ffffff" fill-opacity="0.04"/><circle cx="560" cy="164" r="0.8" fill="#ffffff" fill-opacity="0.04"/><circle cx="560" cy="200" r="0.8" fill="#ffffff" fill-opacity="0.04"/><circle cx="560" cy="236" r="0.8" fill="#ffffff" fill-opacity="0.04"/><circle cx="560" cy="272" r="0.8" fill="#ffffff" fill-opacity="0.04"/><circle cx="560" cy="308" r="0.8" fill="#ffffff" fill-opacity="0.04"/><circle cx="560" cy="344" r="0.8" fill="#ffffff" fill-opacity="0.04"/><circle cx="560" cy="380" r="0.8" fill="#ffffff" fill-opacity="0.04"/><circle cx="560" cy="416" r="0.8" fill="#ffffff" fill-opacity="0.04"/><circle cx="560" cy="452" r="0.8" fill="#ffffff" fill-opacity="0.04"/><circle cx="560" cy="488" r="0.8" fill="#ffffff" fill-opacity="0.04"/><circle cx="596" cy="20" r="0.8" fill="#ffffff" fill-opacity="0.04"/><circle cx="596" cy="56" r="0.8" fill="#ffffff" fill-opacity="0.04"/><circle cx="596" cy="92" r="0.8" fill="#ffffff" fill-opacity="0.04"/><circle cx="596" cy="128" r="0.8" fill="#ffffff" fill-opacity="0.04"/><circle cx="596" cy="164" r="0.8" fill="#ffffff" fill-opacity="0.04"/><circle cx="596" cy="200" r="0.8" fill="#ffffff" fill-opacity="0.04"/><circle cx="596" cy="236" r="0.8" fill="#ffffff" fill-opacity="0.04"/><circle cx="596" cy="272" r="0.8" fill="#ffffff" fill-opacity="0.04"/><circle cx="596" cy="308" r="0.8" fill="#ffffff" fill-opacity="0.04"/><circle cx="596" cy="344" r="0.8" fill="#ffffff" fill-opacity="0.04"/><circle cx="596" cy="380" r="0.8" fill="#ffffff" fill-opacity="0.04"/><circle cx="596" cy="416" r="0.8" fill="#ffffff" fill-opacity="0.04"/><circle cx="596" cy="452" r="0.8" fill="#ffffff" fill-opacity="0.04"/><circle cx="596" cy="488" r="0.8" fill="#ffffff" fill-opacity="0.04"/><circle cx="632" cy="20" r="0.8" fill="#ffffff" fill-opacity="0.04"/><circle cx="632" cy="56" r="0.8" fill="#ffffff" fill-opacity="0.04"/><circle cx="632" cy="92" r="0.8" fill="#ffffff" fill-opacity="0.04"/><circle cx="632" cy="128" r="0.8" fill="#ffffff" fill-opacity="0.04"/><circle cx="632" cy="164" r="0.8" fill="#ffffff" fill-opacity="0.04"/><circle cx="632" cy="200" r="0.8" fill="#ffffff" fill-opacity="0.04"/><circle cx="632" cy="236" r="0.8" fill="#ffffff" fill-opacity="0.04"/><circle cx="632" cy="272" r="0.8" fill="#ffffff" fill-opacity="0.04"/><circle cx="632" cy="308" r="0.8" fill="#ffffff" fill-opacity="0.04"/><circle cx="632" cy="344" r="0.8" fill="#ffffff" fill-opacity="0.04"/><circle cx="632" cy="380" r="0.8" fill="#ffffff" fill-opacity="0.04"/><circle cx="632" cy="416" r="0.8" fill="#ffffff" fill-opacity="0.04"/><circle cx="632" cy="452" r="0.8" fill="#ffffff" fill-opacity="0.04"/><circle cx="632" cy="488" r="0.8" fill="#ffffff" fill-opacity="0.04"/><circle cx="668" cy="20" r="0.8" fill="#ffffff" fill-opacity="0.04"/><circle cx="668" cy="56" r="0.8" fill="#ffffff" fill-opacity="0.04"/><circle cx="668" cy="92" r="0.8" fill="#ffffff" fill-opacity="0.04"/><circle cx="668" cy="128" r="0.8" fill="#ffffff" fill-opacity="0.04"/><circle cx="668" cy="164" r="0.8" fill="#ffffff" fill-opacity="0.04"/><circle cx="668" cy="200" r="0.8" fill="#ffffff" fill-opacity="0.04"/><circle cx="668" cy="236" r="0.8" fill="#ffffff" fill-opacity="0.04"/><circle cx="668" cy="272" r="0.8" fill="#ffffff" fill-opacity="0.04"/><circle cx="668" cy="308" r="0.8" fill="#ffffff" fill-opacity="0.04"/><circle cx="668" cy="344" r="0.8" fill="#ffffff" fill-opacity="0.04"/><circle cx="668" cy="380" r="0.8" fill="#ffffff" fill-opacity="0.04"/><circle cx="668" cy="416" r="0.8" fill="#ffffff" fill-opacity="0.04"/><circle cx="668" cy="452" r="0.8" fill="#ffffff" fill-opacity="0.04"/><circle cx="668" cy="488" r="0.8" fill="#ffffff" fill-opacity="0.04"/><circle cx="704" cy="20" r="0.8" fill="#ffffff" fill-opacity="0.04"/><circle cx="704" cy="56" r="0.8" fill="#ffffff" fill-opacity="0.04"/><circle cx="704" cy="92" r="0.8" fill="#ffffff" fill-opacity="0.04"/><circle cx="704" cy="128" r="0.8" fill="#ffffff" fill-opacity="0.04"/><circle cx="704" cy="164" r="0.8" fill="#ffffff" fill-opacity="0.04"/><circle cx="704" cy="200" r="0.8" fill="#ffffff" fill-opacity="0.04"/><circle cx="704" cy="236" r="0.8" fill="#ffffff" fill-opacity="0.04"/><circle cx="704" cy="272" r="0.8" fill="#ffffff" fill-opacity="0.04"/><circle cx="704" cy="308" r="0.8" fill="#ffffff" fill-opacity="0.04"/><circle cx="704" cy="344" r="0.8" fill="#ffffff" fill-opacity="0.04"/><circle cx="704" cy="380" r="0.8" fill="#ffffff" fill-opacity="0.04"/><circle cx="704" cy="416" r="0.8" fill="#ffffff" fill-opacity="0.04"/><circle cx="704" cy="452" r="0.8" fill="#ffffff" fill-opacity="0.04"/><circle cx="704" cy="488" r="0.8" fill="#ffffff" fill-opacity="0.04"/><circle cx="740" cy="20" r="0.8" fill="#ffffff" fill-opacity="0.04"/><circle cx="740" cy="56" r="0.8" fill="#ffffff" fill-opacity="0.04"/><circle cx="740" cy="92" r="0.8" fill="#ffffff" fill-opacity="0.04"/><circle cx="740" cy="128" r="0.8" fill="#ffffff" fill-opacity="0.04"/><circle cx="740" cy="164" r="0.8" fill="#ffffff" fill-opacity="0.04"/><circle cx="740" cy="200" r="0.8" fill="#ffffff" fill-opacity="0.04"/><circle cx="740" cy="236" r="0.8" fill="#ffffff" fill-opacity="0.04"/><circle cx="740" cy="272" r="0.8" fill="#ffffff" fill-opacity="0.04"/><circle cx="740" cy="308" r="0.8" fill="#ffffff" fill-opacity="0.04"/><circle cx="740" cy="344" r="0.8" fill="#ffffff" fill-opacity="0.04"/><circle cx="740" cy="380" r="0.8" fill="#ffffff" fill-opacity="0.04"/><circle cx="740" cy="416" r="0.8" fill="#ffffff" fill-opacity="0.04"/><circle cx="740" cy="452" r="0.8" fill="#ffffff" fill-opacity="0.04"/><circle cx="740" cy="488" r="0.8" fill="#ffffff" fill-opacity="0.04"/><circle cx="776" cy="20" r="0.8" fill="#ffffff" fill-opacity="0.04"/><circle cx="776" cy="56" r="0.8" fill="#ffffff" fill-opacity="0.04"/><circle cx="776" cy="92" r="0.8" fill="#ffffff" fill-opacity="0.04"/><circle cx="776" cy="128" r="0.8" fill="#ffffff" fill-opacity="0.04"/><circle cx="776" cy="164" r="0.8" fill="#ffffff" fill-opacity="0.04"/><circle cx="776" cy="200" r="0.8" fill="#ffffff" fill-opacity="0.04"/><circle cx="776" cy="236" r="0.8" fill="#ffffff" fill-opacity="0.04"/><circle cx="776" cy="272" r="0.8" fill="#ffffff" fill-opacity="0.04"/><circle cx="776" cy="308" r="0.8" fill="#ffffff" fill-opacity="0.04"/><circle cx="776" cy="344" r="0.8" fill="#ffffff" fill-opacity="0.04"/><circle cx="776" cy="380" r="0.8" fill="#ffffff" fill-opacity="0.04"/><circle cx="776" cy="416" r="0.8" fill="#ffffff" fill-opacity="0.04"/><circle cx="776" cy="452" r="0.8" fill="#ffffff" fill-opacity="0.04"/><circle cx="776" cy="488" r="0.8" fill="#ffffff" fill-opacity="0.04"/><circle cx="812" cy="20" r="0.8" fill="#ffffff" fill-opacity="0.04"/><circle cx="812" cy="56" r="0.8" fill="#ffffff" fill-opacity="0.04"/><circle cx="812" cy="92" r="0.8" fill="#ffffff" fill-opacity="0.04"/><circle cx="812" cy="128" r="0.8" fill="#ffffff" fill-opacity="0.04"/><circle cx="812" cy="164" r="0.8" fill="#ffffff" fill-opacity="0.04"/><circle cx="812" cy="200" r="0.8" fill="#ffffff" fill-opacity="0.04"/><circle cx="812" cy="236" r="0.8" fill="#ffffff" fill-opacity="0.04"/><circle cx="812" cy="272" r="0.8" fill="#ffffff" fill-opacity="0.04"/><circle cx="812" cy="308" r="0.8" fill="#ffffff" fill-opacity="0.04"/><circle cx="812" cy="344" r="0.8" fill="#ffffff" fill-opacity="0.04"/><circle cx="812" cy="380" r="0.8" fill="#ffffff" fill-opacity="0.04"/><circle cx="812" cy="416" r="0.8" fill="#ffffff" fill-opacity="0.04"/><circle cx="812" cy="452" r="0.8" fill="#ffffff" fill-opacity="0.04"/><circle cx="812" cy="488" r="0.8" fill="#ffffff" fill-opacity="0.04"/><circle cx="848" cy="20" r="0.8" fill="#ffffff" fill-opacity="0.04"/><circle cx="848" cy="56" r="0.8" fill="#ffffff" fill-opacity="0.04"/><circle cx="848" cy="92" r="0.8" fill="#ffffff" fill-opacity="0.04"/><circle cx="848" cy="128" r="0.8" fill="#ffffff" fill-opacity="0.04"/><circle cx="848" cy="164" r="0.8" fill="#ffffff" fill-opacity="0.04"/><circle cx="848" cy="200" r="0.8" fill="#ffffff" fill-opacity="0.04"/><circle cx="848" cy="236" r="0.8" fill="#ffffff" fill-opacity="0.04"/><circle cx="848" cy="272" r="0.8" fill="#ffffff" fill-opacity="0.04"/><circle cx="848" cy="308" r="0.8" fill="#ffffff" fill-opacity="0.04"/><circle cx="848" cy="344" r="0.8" fill="#ffffff" fill-opacity="0.04"/><circle cx="848" cy="380" r="0.8" fill="#ffffff" fill-opacity="0.04"/><circle cx="848" cy="416" r="0.8" fill="#ffffff" fill-opacity="0.04"/><circle cx="848" cy="452" r="0.8" fill="#ffffff" fill-opacity="0.04"/><circle cx="848" cy="488" r="0.8" fill="#ffffff" fill-opacity="0.04"/><circle cx="884" cy="20" r="0.8" fill="#ffffff" fill-opacity="0.04"/><circle cx="884" cy="56" r="0.8" fill="#ffffff" fill-opacity="0.04"/><circle cx="884" cy="92" r="0.8" fill="#ffffff" fill-opacity="0.04"/><circle cx="884" cy="128" r="0.8" fill="#ffffff" fill-opacity="0.04"/><circle cx="884" cy="164" r="0.8" fill="#ffffff" fill-opacity="0.04"/><circle cx="884" cy="200" r="0.8" fill="#ffffff" fill-opacity="0.04"/><circle cx="884" cy="236" r="0.8" fill="#ffffff" fill-opacity="0.04"/><circle cx="884" cy="272" r="0.8" fill="#ffffff" fill-opacity="0.04"/><circle cx="884" cy="308" r="0.8" fill="#ffffff" fill-opacity="0.04"/><circle cx="884" cy="344" r="0.8" fill="#ffffff" fill-opacity="0.04"/><circle cx="884" cy="380" r="0.8" fill="#ffffff" fill-opacity="0.04"/><circle cx="884" cy="416" r="0.8" fill="#ffffff" fill-opacity="0.04"/><circle cx="884" cy="452" r="0.8" fill="#ffffff" fill-opacity="0.04"/><circle cx="884" cy="488" r="0.8" fill="#ffffff" fill-opacity="0.04"/><circle cx="920" cy="20" r="0.8" fill="#ffffff" fill-opacity="0.04"/><circle cx="920" cy="56" r="0.8" fill="#ffffff" fill-opacity="0.04"/><circle cx="920" cy="92" r="0.8" fill="#ffffff" fill-opacity="0.04"/><circle cx="920" cy="128" r="0.8" fill="#ffffff" fill-opacity="0.04"/><circle cx="920" cy="164" r="0.8" fill="#ffffff" fill-opacity="0.04"/><circle cx="920" cy="200" r="0.8" fill="#ffffff" fill-opacity="0.04"/><circle cx="920" cy="236" r="0.8" fill="#ffffff" fill-opacity="0.04"/><circle cx="920" cy="272" r="0.8" fill="#ffffff" fill-opacity="0.04"/><circle cx="920" cy="308" r="0.8" fill="#ffffff" fill-opacity="0.04"/><circle cx="920" cy="344" r="0.8" fill="#ffffff" fill-opacity="0.04"/><circle cx="920" cy="380" r="0.8" fill="#ffffff" fill-opacity="0.04"/><circle cx="920" cy="416" r="0.8" fill="#ffffff" fill-opacity="0.04"/><circle cx="920" cy="452" r="0.8" fill="#ffffff" fill-opacity="0.04"/><circle cx="920" cy="488" r="0.8" fill="#ffffff" fill-opacity="0.04"/><circle cx="956" cy="20" r="0.8" fill="#ffffff" fill-opacity="0.04"/><circle cx="956" cy="56" r="0.8" fill="#ffffff" fill-opacity="0.04"/><circle cx="956" cy="92" r="0.8" fill="#ffffff" fill-opacity="0.04"/><circle cx="956" cy="128" r="0.8" fill="#ffffff" fill-opacity="0.04"/><circle cx="956" cy="164" r="0.8" fill="#ffffff" fill-opacity="0.04"/><circle cx="956" cy="200" r="0.8" fill="#ffffff" fill-opacity="0.04"/><circle cx="956" cy="236" r="0.8" fill="#ffffff" fill-opacity="0.04"/><circle cx="956" cy="272" r="0.8" fill="#ffffff" fill-opacity="0.04"/><circle cx="956" cy="308" r="0.8" fill="#ffffff" fill-opacity="0.04"/><circle cx="956" cy="344" r="0.8" fill="#ffffff" fill-opacity="0.04"/><circle cx="956" cy="380" r="0.8" fill="#ffffff" fill-opacity="0.04"/><circle cx="956" cy="416" r="0.8" fill="#ffffff" fill-opacity="0.04"/><circle cx="956" cy="452" r="0.8" fill="#ffffff" fill-opacity="0.04"/><circle cx="956" cy="488" r="0.8" fill="#ffffff" fill-opacity="0.04"/><line x1="492" y1="194.0" x2="492" y2="424.1" stroke="#ffffff" stroke-width="0.5" stroke-opacity="0.08" stroke-dasharray="4,4"/><polygon points="492,402.0 692,502.0 692,524.1 492,424.1" fill="#0b5426" fill-opacity="1" stroke="#063016" stroke-width="0.6"/><polygon points="492,402.0 412,442.0 412,464.1 492,424.1" fill="#0f7535" fill-opacity="1" stroke="#063016" stroke-width="0.6"/><polygon points="492,402.0 692,502.0 612,542.0 412,442.0" fill="url(#g_Data_Ingestion)" stroke="#063016" stroke-width="0.6" filter="url(#glow_Data_Ingestion)"/><polyline points="412,442.0 492,402.0 692,502.0" fill="none" stroke="#ffffff" stroke-width="1.0" stroke-opacity="0.18"/><text x="552.0" y="466.0" text-anchor="middle" font-family="'SF Mono',ui-monospace,monospace" font-size="10.5" font-weight="800" fill="#ffffff" opacity="0.95" letter-spacing="0.5">DATA INGESTION</text><rect x="440.0" y="432.0" width="36" height="12" rx="6" fill="#08411d" fill-opacity="0.7" stroke="#16a34a" stroke-width="0.5"/><text x="458.0" y="442.0" text-anchor="middle" font-family="'SF Mono',ui-monospace,monospace" font-size="7.5" font-weight="600" fill="#ffffff" opacity="0.88">Kafka</text><rect x="480.0" y="452.0" width="36" height="12" rx="6" fill="#08411d" fill-opacity="0.7" stroke="#16a34a" stroke-width="0.5"/><text x="498.0" y="462.0" text-anchor="middle" font-family="'SF Mono',ui-monospace,monospace" font-size="7.5" font-weight="600" fill="#ffffff" opacity="0.88">Spark</text><rect x="525.2" y="472.0" width="26" height="12" rx="6" fill="#08411d" fill-opacity="0.7" stroke="#16a34a" stroke-width="0.5"/><text x="538.0" y="482.0" text-anchor="middle" font-family="'SF Mono',ui-monospace,monospace" font-size="7.5" font-weight="600" fill="#ffffff" opacity="0.88">dbt</text><rect x="567.8" y="492.0" width="20" height="12" rx="6" fill="#08411d" fill-opacity="0.7" stroke="#16a34a" stroke-width="0.5"/><text x="578.0" y="502.0" text-anchor="middle" font-family="'SF Mono',ui-monospace,monospace" font-size="7.5" font-weight="600" fill="#ffffff" opacity="0.88">S3</text><rect x="594.8" y="512.0" width="46" height="12" rx="6" fill="#08411d" fill-opacity="0.7" stroke="#16a34a" stroke-width="0.5"/><text x="618.0" y="522.0" text-anchor="middle" font-family="'SF Mono',ui-monospace,monospace" font-size="7.5" font-weight="600" fill="#ffffff" opacity="0.88">Airflow</text><text x="438.0" y="435.1" text-anchor="end" font-family="'SF Mono',ui-monospace,monospace" font-size="9" font-weight="600" fill="#16a34a" opacity="0.9">Data Ingestion</text><circle cx="443.0" cy="432.1" r="2.5" fill="#16a34a" opacity="0.7"/><line x1="445.0" y1="432.1" x2="492.0" y2="402.0" stroke="#16a34a" stroke-width="0.5" stroke-opacity="0.4" stroke-dasharray="3,3"/><polygon points="492,350.0 692,450.0 692,472.1 492,372.1" fill="#703d03" fill-opacity="1" stroke="#412301" stroke-width="0.6"/><polygon points="492,350.0 412,390.0 412,412.1 492,372.1" fill="#9c5504" fill-opacity="1" stroke="#412301" stroke-width="0.6"/><polygon points="492,350.0 692,450.0 612,490.0 412,390.0" fill="url(#g_ML_Platform)" stroke="#412301" stroke-width="0.6" filter="url(#glow_ML_Platform)"/><polyline points="412,390.0 492,350.0 692,450.0" fill="none" stroke="#ffffff" stroke-width="1.0" stroke-opacity="0.18"/><text x="552.0" y="414.0" text-anchor="middle" font-family="'SF Mono',ui-monospace,monospace" font-size="10.5" font-weight="800" fill="#ffffff" opacity="0.95" letter-spacing="0.5">ML PLATFORM</text><rect x="445.0" y="382.5" width="36" height="12" rx="6" fill="#562f02" fill-opacity="0.7" stroke="#d97706" stroke-width="0.5"/><text x="463.0" y="392.5" text-anchor="middle" font-family="'SF Mono',ui-monospace,monospace" font-size="7.5" font-weight="600" fill="#ffffff" opacity="0.88">Feast</text><rect x="492.4" y="407.5" width="41" height="12" rx="6" fill="#562f02" fill-opacity="0.7" stroke="#d97706" stroke-width="0.5"/><text x="513.0" y="417.5" text-anchor="middle" font-family="'SF Mono',ui-monospace,monospace" font-size="7.5" font-weight="600" fill="#ffffff" opacity="0.88">MLflow</text><rect x="534.6" y="432.5" width="57" height="12" rx="6" fill="#562f02" fill-opacity="0.7" stroke="#d97706" stroke-width="0.5"/><text x="563.0" y="442.5" text-anchor="middle" font-family="'SF Mono',ui-monospace,monospace" font-size="7.5" font-weight="600" fill="#ffffff" opacity="0.88">SageMaker</text><rect x="595.0" y="457.5" width="36" height="12" rx="6" fill="#562f02" fill-opacity="0.7" stroke="#d97706" stroke-width="0.5"/><text x="613.0" y="467.5" text-anchor="middle" font-family="'SF Mono',ui-monospace,monospace" font-size="7.5" font-weight="600" fill="#ffffff" opacity="0.88">Redis</text><text x="438.0" y="383.1" text-anchor="end" font-family="'SF Mono',ui-monospace,monospace" font-size="9" font-weight="600" fill="#d97706" opacity="0.9">ML Platform</text><circle cx="443.0" cy="380.1" r="2.5" fill="#d97706" opacity="0.7"/><line x1="445.0" y1="380.1" x2="492.0" y2="350.0" stroke="#d97706" stroke-width="0.5" stroke-opacity="0.4" stroke-dasharray="3,3"/><polygon points="492,298.0 692,398.0 692,420.1 492,320.1" fill="#044b5c" fill-opacity="1" stroke="#022b35" stroke-width="0.6"/><polygon points="492,298.0 412,338.0 412,360.1 492,320.1" fill="#056880" fill-opacity="1" stroke="#022b35" stroke-width="0.6"/><polygon points="492,298.0 692,398.0 612,438.0 412,338.0" fill="url(#g_LLM_Gateway)" stroke="#022b35" stroke-width="0.6" filter="url(#glow_LLM_Gateway)"/><polyline points="412,338.0 492,298.0 692,398.0" fill="none" stroke="#ffffff" stroke-width="1.0" stroke-opacity="0.18"/><text x="552.0" y="362.0" text-anchor="middle" font-family="'SF Mono',ui-monospace,monospace" font-size="10.5" font-weight="800" fill="#ffffff" opacity="0.95" letter-spacing="0.5">LLM GATEWAY</text><rect x="439.8" y="330.5" width="46" height="12" rx="6" fill="#033a47" fill-opacity="0.7" stroke="#0891b2" stroke-width="0.5"/><text x="463.0" y="340.5" text-anchor="middle" font-family="'SF Mono',ui-monospace,monospace" font-size="7.5" font-weight="600" fill="#ffffff" opacity="0.88">FastAPI</text><rect x="482.0" y="355.5" width="62" height="12" rx="6" fill="#033a47" fill-opacity="0.7" stroke="#0891b2" stroke-width="0.5"/><text x="513.0" y="365.5" text-anchor="middle" font-family="'SF Mono',ui-monospace,monospace" font-size="7.5" font-weight="600" fill="#ffffff" opacity="0.88">Sem. Cache</text><rect x="542.4" y="380.5" width="41" height="12" rx="6" fill="#033a47" fill-opacity="0.7" stroke="#0891b2" stroke-width="0.5"/><text x="563.0" y="390.5" text-anchor="middle" font-family="'SF Mono',ui-monospace,monospace" font-size="7.5" font-weight="600" fill="#ffffff" opacity="0.88">Router</text><rect x="597.6" y="405.5" width="31" height="12" rx="6" fill="#033a47" fill-opacity="0.7" stroke="#0891b2" stroke-width="0.5"/><text x="613.0" y="415.5" text-anchor="middle" font-family="'SF Mono',ui-monospace,monospace" font-size="7.5" font-weight="600" fill="#ffffff" opacity="0.88">Auth</text><text x="438.0" y="331.1" text-anchor="end" font-family="'SF Mono',ui-monospace,monospace" font-size="9" font-weight="600" fill="#0891b2" opacity="0.9">LLM Gateway</text><circle cx="443.0" cy="328.1" r="2.5" fill="#0891b2" opacity="0.7"/><line x1="445.0" y1="328.1" x2="492.0" y2="298.0" stroke="#0891b2" stroke-width="0.5" stroke-opacity="0.4" stroke-dasharray="3,3"/><polygon points="492,246.0 692,346.0 692,368.1 492,268.1" fill="#13337a" fill-opacity="1" stroke="#0b1d46" stroke-width="0.6"/><polygon points="492,246.0 412,286.0 412,308.1 492,268.1" fill="#1a47a9" fill-opacity="1" stroke="#0b1d46" stroke-width="0.6"/><polygon points="492,246.0 692,346.0 612,386.0 412,286.0" fill="url(#g_Agent_Layer)" stroke="#0b1d46" stroke-width="0.6" filter="url(#glow_Agent_Layer)"/><polyline points="412,286.0 492,246.0 692,346.0" fill="none" stroke="#ffffff" stroke-width="1.0" stroke-opacity="0.18"/><text x="552.0" y="310.0" text-anchor="middle" font-family="'SF Mono',ui-monospace,monospace" font-size="10.5" font-weight="800" fill="#ffffff" opacity="0.95" letter-spacing="0.5">AGENT LAYER</text><rect x="434.6" y="278.5" width="57" height="12" rx="6" fill="#0e275e" fill-opacity="0.7" stroke="#2563eb" stroke-width="0.5"/><text x="463.0" y="288.5" text-anchor="middle" font-family="'SF Mono',ui-monospace,monospace" font-size="7.5" font-weight="600" fill="#ffffff" opacity="0.88">LangGraph</text><rect x="500.2" y="303.5" width="26" height="12" rx="6" fill="#0e275e" fill-opacity="0.7" stroke="#2563eb" stroke-width="0.5"/><text x="513.0" y="313.5" text-anchor="middle" font-family="'SF Mono',ui-monospace,monospace" font-size="7.5" font-weight="600" fill="#ffffff" opacity="0.88">MCP</text><rect x="542.4" y="328.5" width="41" height="12" rx="6" fill="#0e275e" fill-opacity="0.7" stroke="#2563eb" stroke-width="0.5"/><text x="563.0" y="338.5" text-anchor="middle" font-family="'SF Mono',ui-monospace,monospace" font-size="7.5" font-weight="600" fill="#ffffff" opacity="0.88">Claude</text><rect x="595.0" y="353.5" width="36" height="12" rx="6" fill="#0e275e" fill-opacity="0.7" stroke="#2563eb" stroke-width="0.5"/><text x="613.0" y="363.5" text-anchor="middle" font-family="'SF Mono',ui-monospace,monospace" font-size="7.5" font-weight="600" fill="#ffffff" opacity="0.88">Tools</text><text x="438.0" y="279.0" text-anchor="end" font-family="'SF Mono',ui-monospace,monospace" font-size="9" font-weight="600" fill="#2563eb" opacity="0.9">Agent Layer</text><circle cx="443.0" cy="276.0" r="2.5" fill="#2563eb" opacity="0.7"/><line x1="445.0" y1="276.0" x2="492.0" y2="246.0" stroke="#2563eb" stroke-width="0.5" stroke-opacity="0.4" stroke-dasharray="3,3"/><polygon points="492,194.0 692,294.0 692,316.1 492,216.1" fill="#4c1a79" fill-opacity="1" stroke="#2c0f46" stroke-width="0.6"/><polygon points="492,194.0 412,234.0 412,256.1 492,216.1" fill="#6924a8" fill-opacity="1" stroke="#2c0f46" stroke-width="0.6"/><polygon points="492,194.0 692,294.0 612,334.0 412,234.0" fill="url(#g_Observability)" stroke="#2c0f46" stroke-width="0.6" filter="url(#glow_Observability)"/><polyline points="412,234.0 492,194.0 692,294.0" fill="none" stroke="#ffffff" stroke-width="1.0" stroke-opacity="0.18"/><text x="552.0" y="258.0" text-anchor="middle" font-family="'SF Mono',ui-monospace,monospace" font-size="10.5" font-weight="800" fill="#ffffff" opacity="0.95" letter-spacing="0.5">OBSERVABILITY</text><rect x="434.6" y="226.5" width="57" height="12" rx="6" fill="#3a145d" fill-opacity="0.7" stroke="#9333ea" stroke-width="0.5"/><text x="463.0" y="236.5" text-anchor="middle" font-family="'SF Mono',ui-monospace,monospace" font-size="7.5" font-weight="600" fill="#ffffff" opacity="0.88">Evidently</text><rect x="495.0" y="251.5" width="36" height="12" rx="6" fill="#3a145d" fill-opacity="0.7" stroke="#9333ea" stroke-width="0.5"/><text x="513.0" y="261.5" text-anchor="middle" font-family="'SF Mono',ui-monospace,monospace" font-size="7.5" font-weight="600" fill="#ffffff" opacity="0.88">RAGAS</text><rect x="539.8" y="276.5" width="46" height="12" rx="6" fill="#3a145d" fill-opacity="0.7" stroke="#9333ea" stroke-width="0.5"/><text x="563.0" y="286.5" text-anchor="middle" font-family="'SF Mono',ui-monospace,monospace" font-size="7.5" font-weight="600" fill="#ffffff" opacity="0.88">Grafana</text><rect x="592.4" y="301.5" width="41" height="12" rx="6" fill="#3a145d" fill-opacity="0.7" stroke="#9333ea" stroke-width="0.5"/><text x="613.0" y="311.5" text-anchor="middle" font-family="'SF Mono',ui-monospace,monospace" font-size="7.5" font-weight="600" fill="#ffffff" opacity="0.88">Alerts</text><text x="438.0" y="227.0" text-anchor="end" font-family="'SF Mono',ui-monospace,monospace" font-size="9" font-weight="600" fill="#9333ea" opacity="0.9">Observability</text><circle cx="443.0" cy="224.0" r="2.5" fill="#9333ea" opacity="0.7"/><line x1="445.0" y1="224.0" x2="492.0" y2="194.0" stroke="#9333ea" stroke-width="0.5" stroke-opacity="0.4" stroke-dasharray="3,3"/><text x="480" y="30" text-anchor="middle" font-family="'SF Mono',ui-monospace,monospace" font-size="14" font-weight="800" fill="#ffffff" opacity="0.85" letter-spacing="2">PRODUCTION LLM STACK</text><text x="480" y="48" text-anchor="middle" font-family="'SF Mono',ui-monospace,monospace" font-size="9" fill="#6b7280" letter-spacing="1">data → features → gateway → agents → observability</text>
</svg>